<?xml version="1.0" encoding="UTF-8" standalone="no"?>
        <svg 
    viewBox="5.56640625 -86.1328125 445.8251953125 56.982421875"
    width="440.2587890625"
    height="143.115234375"
   xmlns="http://www.w3.org/2000/svg"
   xmlns:svg="http://www.w3.org/2000/svg">
   <path d="M6.74 6.45L5.57 2.27L62.55 2.27L62.55-54.57L17.87-54.57L16.63-58.81L62.55-58.81L62.55-108.91L12.60-108.91L11.43-113.09L105.03-113.09L117.11-128.54Q117.11-128.54 119.35-126.86Q121.58-125.17 125.02-122.50Q128.47-119.82 132.20-116.86Q135.94-113.89 139.01-111.33L139.01-111.33Q138.43-108.91 134.69-108.91L134.69-108.91L86.57-108.91L86.57-58.81L101.07-58.81L112.79-73.54Q112.79-73.54 114.92-71.92Q117.04-70.31 120.34-67.79Q123.63-65.26 127.22-62.40Q130.81-59.55 133.81-56.98L133.81-56.98Q133.15-54.57 129.42-54.57L129.42-54.57L86.57-54.57L86.57 2.27L111.04 2.27L123.49-13.48Q123.49-13.48 125.72-11.79Q127.95-10.11 131.47-7.40Q134.99-4.69 138.83-1.65Q142.68 1.39 145.83 4.03L145.83 4.03Q145.17 6.45 141.28 6.45L141.28 6.45L6.74 6.45ZM201.78-48.93L202.81-49.37Q205.15-42.26 208.04-36.69Q210.94-31.13 214.67-27.03L214.67-27.03Q217.90-36.04 219.80-45.70Q221.70-55.37 222.73-65.41L222.73-65.41L220.68-65.41L218.55-57.57Q214.97-56.03 210.10-55.88Q205.22-55.74 198.49-57.42L198.49-57.42L201.78-68.99Q198.93-66.65 195.41-63.72Q191.89-60.79 187.50-57.28L187.50-57.28L187.50-7.98Q187.50-1.25 186.04 3.41Q184.57 8.06 179.81 10.77Q175.05 13.48 165.16 14.43L165.16 14.43Q164.94 9.67 164.39 6.19Q163.84 2.71 162.60 0.44L162.60 0.44Q161.35-1.83 159.30-3.33Q157.25-4.83 153.00-5.71L153.00-5.71L153.00-7.76Q153.00-7.76 155.57-7.58Q158.13-7.40 161.17-7.21Q164.21-7.03 165.45-7.03L165.45-7.03Q168.02-7.03 168.02-9.30L168.02-9.30L168.02-42.77L163.92-39.92Q162.89-36.55 159.89-35.52L159.89-35.52L152.27-57.57Q154.76-58.15 158.79-59.14Q162.82-60.13 168.02-61.52L168.02-61.52L168.02-89.58L153.74-89.58L152.71-93.75L168.02-93.75L168.02-128.39L193.07-125.98Q192.85-124.29 191.56-123.23Q190.28-122.17 187.50-121.80L187.50-121.80L187.50-95.07L193.95-107.23Q193.95-107.23 196.18-104.63Q198.41-102.03 201.27-98.44Q204.13-94.85 206.10-91.92L206.10-91.92Q205.66-89.58 202.37-89.58L202.37-89.58L187.50-89.58L187.50-66.72L201.93-70.83L202.08-70.17Q204.86-81.01 207.42-92.03Q209.99-103.05 211.67-111.62L211.67-111.62L199.95-111.62L198.63-115.80L210.86-115.80L218.85-125.24L237.16-111.04Q235.47-108.84 230.57-108.18L230.57-108.18Q229.54-103.49 228.15-97.12Q226.76-90.75 225.07-83.72Q223.39-76.68 221.70-69.87L221.70-69.87L231.01-79.61L241.63-70.68L254.08-70.68L254.08-102.61Q249.02-102.17 243.90-102.03Q238.77-101.88 233.86-101.88L233.86-101.88L233.57-103.64Q240.75-106.13 248.33-109.86Q255.91-113.60 262.50-117.66Q269.09-121.73 273.27-125.24L273.27-125.24L293.26-106.79Q291.87-105.69 289.31-105.58Q286.74-105.47 283.08-106.79L283.08-106.79L274.51-105.03L274.51-71.85L282.28-84.74Q282.28-84.74 283.85-83.17Q285.42-81.59 287.81-79.10Q290.19-76.61 292.71-73.90Q295.24-71.19 297.14-68.85L297.14-68.85Q296.70-66.43 293.12-66.43L293.12-66.43L274.51-66.43L274.51-27.17L281.84-39.92Q281.84-39.92 283.34-38.34Q284.84-36.77 287.07-34.35Q289.31-31.93 291.69-29.22Q294.07-26.51 295.83-24.32L295.83-24.32Q295.17-21.90 291.72-21.90L291.72-21.90L238.92-21.90L237.74-26.07L254.08-26.07L254.08-66.43L246.61-66.43L248.22-65.11Q246.90-62.99 242.58-62.40L242.58-62.40Q240.53-50.24 236.87-38.82Q233.20-27.39 226.68-17.43L226.68-17.43Q234.96-13.04 246.06-11.39Q257.15-9.74 271.80-9.74L271.80-9.74Q274.66-9.74 279.49-9.74Q284.33-9.74 289.38-9.74Q294.43-9.74 297.88-9.74L297.88-9.74L297.88-8.28Q292.60-6.88 290.08-1.03Q287.55 4.83 287.40 12.01L287.40 12.01Q285.35 12.01 282.09 12.01Q278.83 12.01 275.61 12.01Q272.39 12.01 270.48 12.01L270.48 12.01Q252.03 12.01 238.95 8.24Q225.88 4.47 217.38-6.01L217.38-6.01Q211.52 0.07 203.94 5.20Q196.36 10.33 186.62 14.28L186.62 14.28L185.52 12.45Q194.02 6.52 200.10-1.03Q206.18-8.57 210.42-17.07L210.42-17.07Q204.71-29.30 201.78-48.93L201.78-48.93ZM322.78-113.23L322.78-113.23L324.61-113.23Q325.85-110.74 326.70-108.33Q327.54-105.91 328.20-103.64L328.20-103.64L363.57-103.64L363.57-128.25L391.48-126.27Q391.41-124.73 390.34-123.63Q389.28-122.53 386.13-121.95L386.13-121.95L386.13-103.64L416.97-103.64L427.51-114.18L445.68-97.05Q444.65-96.17 443.37-95.76Q442.09-95.36 439.67-95.07L439.67-95.07Q435.35-92.14 428.98-88.92Q422.61-85.69 416.82-83.72L416.82-83.72L425.83-76.17Q425.17-73.83 421.66-73.83L421.66-73.83L386.13-73.83L386.13-49.22L416.24-49.22L426.78-62.99Q426.78-62.99 428.72-61.49Q430.66-59.99 433.63-57.57Q436.60-55.15 439.89-52.44Q443.19-49.73 445.83-47.39L445.83-47.39Q445.17-44.97 441.58-44.97L441.58-44.97L386.13-44.97L386.13-11.72Q386.13-4.47 384.12 1.10Q382.10 6.67 375.92 10.14Q369.73 13.62 357.28 14.58L357.28 14.58Q357.06 9.01 356.07 4.91Q355.08 0.81 352.81-1.68L352.81-1.68Q350.68-4.03 347.28-5.90Q343.87-7.76 336.47-9.01L336.47-9.01L336.47-10.77Q336.47-10.77 339.55-10.62Q342.63-10.47 346.95-10.22Q351.27-9.96 355.11-9.78Q358.96-9.59 360.42-9.59L360.42-9.59Q363.57-9.59 363.57-12.45L363.57-12.45L363.57-44.97L306.30-44.97L305.13-49.22L363.57-49.22L363.57-73.83L328.78-73.83L327.61-78.00L396.02-78.00L406.64-91.48L414.62-85.33Q415.50-88.48 416.42-92.29Q417.33-96.09 417.92-99.46L417.92-99.46L329.08-99.46Q330.47-91.33 328.45-85.58Q326.44-79.83 322.49-77.27L322.49-77.27Q319.85-75.51 316.55-75.62Q313.26-75.73 310.40-77.53Q307.54-79.32 306.45-82.76L306.45-82.76Q304.98-87.67 307.32-91.26Q309.67-94.85 313.77-96.90L313.77-96.90Q315.89-98.22 318.13-100.78Q320.36-103.34 321.75-106.57Q323.14-109.79 322.78-113.23Z"/>
    </svg>
        